<svg version="1.1" id="Layer_1" xmlns="http://www.w3.org/2000/svg" xmlns:xlink="http://www.w3.org/1999/xlink" x="0px" y="0px"
	 width="100%" viewBox="0 0 500 500" enable-background="new 0 0 500 500" xml:space="preserve">
<path fill="#FFFFFF" opacity="1.000000" stroke="none" 
	d="
M277.000000,501.000000 
	C184.666687,501.000000 92.833374,501.000000 1.000049,501.000000 
	C1.000033,334.333405 1.000033,167.666794 1.000016,1.000139 
	C167.666565,1.000093 334.333130,1.000093 500.999756,1.000046 
	C500.999847,167.666519 500.999847,334.333038 500.999939,500.999786 
	C426.500000,501.000000 352.000000,501.000000 277.000000,501.000000 
M378.710876,431.918823 
	C378.988922,431.444092 379.266937,430.969391 380.103973,429.944855 
	C382.855377,421.930145 380.503662,416.719940 372.147369,413.990417 
	C368.401642,413.753204 364.794830,413.894562 362.112396,417.827942 
	C361.897064,418.057648 361.712982,418.310150 360.996674,419.024872 
	C357.362579,426.984497 360.082458,433.312225 368.541687,435.667969 
	C371.434479,434.857147 374.327271,434.046356 377.650238,432.998810 
	C377.918488,432.795532 378.115692,432.537872 378.710876,431.918823 
M439.744537,191.308304 
	C439.207977,189.917099 438.630768,188.540039 438.140839,187.132599 
	C422.815643,143.104996 395.540131,108.369194 356.185425,83.511749 
	C315.861694,58.042274 271.767639,48.659954 224.433792,54.868969 
	C192.860046,59.010647 163.971252,70.250000 137.949097,88.530327 
	C101.056473,114.447083 75.776535,149.048828 60.882652,191.913345 
	C43.808605,191.913345 26.734560,191.913345 9.630124,191.913345 
	C9.630124,231.662369 9.630124,270.713989 9.630124,310.073700 
	C27.237469,310.073700 44.539913,310.073700 62.079628,310.784271 
	C72.210594,341.462677 88.056259,368.802002 111.339714,391.268768 
	C157.616547,435.922485 212.929001,455.302673 276.900238,447.029541 
	C333.273804,439.738983 377.962708,411.838470 411.709595,366.344879 
	C424.382385,349.260925 433.358612,330.187683 441.055817,310.075256 
	C458.144135,310.075256 475.232422,310.075256 492.359497,310.075256 
	C492.359497,270.345215 492.359497,231.275253 492.359497,191.953140 
	C474.726624,191.953140 457.409546,191.953140 439.744537,191.308304 
z"/>
<path fill="#13307A" opacity="1.000000" stroke="none" 
	d="
M61.842358,310.073700 
	C44.539913,310.073700 27.237469,310.073700 9.630124,310.073700 
	C9.630124,270.713989 9.630124,231.662369 9.630124,191.913345 
	C26.734560,191.913345 43.808605,191.913345 61.818832,191.936935 
	C67.923897,191.930634 73.092781,191.900742 78.698112,191.882721 
	C82.725487,191.542114 86.316414,191.189636 90.189316,191.160141 
	C91.937019,191.654800 93.402725,191.976440 94.868500,191.976761 
	C198.909149,192.000259 302.949799,192.003662 406.990417,191.949844 
	C408.691284,191.948959 410.391724,191.223755 412.429993,191.074402 
	C416.173584,191.531967 419.579620,191.751678 423.454254,191.977249 
	C429.312744,191.973114 434.702637,191.963120 440.092499,191.953140 
	C457.409546,191.953140 474.726624,191.953140 492.359497,191.953140 
	C492.359497,231.275253 492.359497,270.345215 492.359497,310.075256 
	C475.232422,310.075256 458.144135,310.075256 440.120117,310.046631 
	C433.804016,310.015533 428.423553,310.013062 422.591736,310.031982 
	C418.795471,310.431000 415.450623,310.808655 411.825317,310.860016 
	C410.080719,310.356598 408.616638,310.024811 407.152496,310.024475 
	C303.106415,310.000244 199.060333,309.996918 95.014259,310.050476 
	C93.312462,310.051361 91.611038,310.773193 89.572067,310.918335 
	C85.790428,310.449951 82.346161,310.221802 78.440186,309.999420 
	C72.599770,310.028046 67.221062,310.050873 61.842358,310.073700 
M265.243927,233.235550 
	C267.905029,243.536804 267.905029,243.536804 275.437958,242.529419 
	C277.096008,227.708359 278.767456,212.767410 280.432770,197.881424 
	C272.783295,196.477081 272.578705,196.667038 272.083893,203.221634 
	C271.629639,209.239059 271.042847,215.246460 270.514435,221.258286 
	C267.908661,214.541504 266.615204,207.783707 264.922913,201.127319 
	C264.541779,199.628052 262.769440,198.482437 261.637543,197.174026 
	C260.381897,198.525299 258.470367,199.680176 257.995728,201.265289 
	C256.665710,205.707153 255.980469,210.338547 254.934006,214.870499 
	C254.482513,216.825806 253.767853,218.720322 253.172729,220.642456 
	C251.753723,214.699310 251.280640,208.985962 250.860825,203.268692 
	C250.377151,196.682312 250.158707,196.506317 242.531876,197.867477 
	C244.114441,212.744659 245.703003,227.678146 247.277603,242.480484 
	C255.210464,243.632111 255.207001,243.631302 256.792419,236.776703 
	C258.218750,230.610016 259.653809,224.445328 261.085022,218.279770 
	C261.346863,218.309402 261.608673,218.339050 261.870514,218.368683 
	C262.942230,223.051651 264.013947,227.734619 265.243927,233.235550 
M247.721481,266.580505 
	C247.721481,271.721100 247.721481,276.861694 247.721481,282.002289 
	C244.556946,276.173096 242.405197,270.262268 240.262024,264.348297 
	C238.106171,258.399353 237.488571,258.100067 231.406937,260.021881 
	C231.406937,274.964996 231.406937,289.872986 231.406937,304.699036 
	C234.047531,304.699036 236.302200,304.699036 239.078857,304.699036 
	C239.078857,296.944885 239.078857,289.488129 239.078857,282.031342 
	C241.880081,287.736938 244.296509,293.390564 245.911377,299.264526 
	C247.354187,304.512665 249.936676,306.461456 255.286163,304.373047 
	C255.286163,289.522491 255.286163,274.608948 255.286163,259.457550 
	C252.725327,259.457550 250.499695,259.457550 247.721436,259.457550 
	C247.721436,261.700073 247.721436,263.654755 247.721481,266.580505 
M368.204742,202.765427 
	C368.204742,216.038269 368.204742,229.311096 368.204742,242.794434 
	C371.082550,242.794434 373.332397,242.794434 376.012115,242.794434 
	C376.012115,235.061111 376.012115,227.531113 376.012115,220.001114 
	C376.334412,219.935410 376.656677,219.869690 376.978973,219.803970 
	C379.076324,225.656464 381.173706,231.508926 383.271027,237.361420 
	C385.593201,243.841476 385.593201,243.841476 392.870850,242.251999 
	C392.870850,229.393616 392.872040,216.435791 392.870392,203.477966 
	C392.869476,196.458481 392.798126,196.404861 385.030457,197.826843 
	C385.030457,205.257751 385.030457,212.781601 385.030457,220.305450 
	C381.933441,214.484283 379.441345,208.575882 377.728088,202.449661 
	C376.330566,197.452301 373.652466,196.078308 368.513000,197.724838 
	C368.420288,198.962418 368.312653,200.398956 368.204742,202.765427 
M171.871841,226.498322 
	C171.871841,231.933395 171.871841,237.368469 171.871841,242.676117 
	C174.839722,242.676117 177.082962,242.676117 179.752014,242.676117 
	C179.752014,235.117310 179.752014,227.883011 179.752014,220.648727 
	C182.758286,226.145874 185.289200,231.712769 186.764084,237.546646 
	C188.128448,242.943466 191.039825,243.914261 195.789856,242.588501 
	C195.789856,227.492722 195.789856,212.460693 195.789856,197.418228 
	C193.245270,197.418228 191.136948,197.418228 188.311295,197.418228 
	C188.311295,204.918045 188.311295,212.201416 188.311295,219.484802 
	C185.190079,213.849579 182.759567,208.224228 181.161011,202.371643 
	C179.776108,197.301315 177.031769,196.150620 171.871841,197.811188 
	C171.871841,206.935974 171.871841,216.217346 171.871841,226.498322 
M398.543121,219.505264 
	C398.575165,224.827789 398.529602,230.152252 398.663940,235.472198 
	C398.770264,239.683853 400.910980,242.941177 405.193451,242.784668 
	C410.935059,242.574860 417.794556,245.809769 421.892670,238.687653 
	C422.214050,238.129166 422.417053,237.417130 422.421173,236.774826 
	C422.460327,230.672440 422.444519,224.569687 422.444519,218.282562 
	C418.590576,218.282562 415.033691,218.282562 411.266052,218.282562 
	C411.159790,221.833542 409.490814,225.652863 415.002808,226.233322 
	C415.002808,228.327148 414.909576,230.155197 415.023315,231.970276 
	C415.223999,235.173401 413.187408,235.340652 410.821075,235.344604 
	C408.511047,235.348465 406.417084,235.333267 406.433441,232.134872 
	C406.474365,224.149857 406.475861,216.164322 406.433044,208.179321 
	C406.416229,205.046494 408.371033,204.872742 410.761047,204.904510 
	C413.117218,204.935837 415.178406,205.009460 415.027771,208.226501 
	C414.968781,209.486160 415.196594,210.759232 415.298584,212.088806 
	C417.863129,212.088806 420.097046,212.088806 422.668976,212.088806 
	C422.668976,209.428070 422.805298,207.119156 422.639221,204.832214 
	C422.338776,200.694855 420.228455,197.533279 415.970795,197.461517 
	C410.272156,197.365463 403.708130,194.884415 399.546570,201.218124 
	C398.633575,202.607666 398.654358,204.735413 398.593750,206.534927 
	C398.459503,210.523163 398.546570,214.518860 398.543121,219.505264 
M97.578529,197.462982 
	C94.922050,197.365570 92.264954,197.172180 89.609200,197.188980 
	C82.027786,197.236923 79.677032,199.479904 79.569695,206.932785 
	C79.469009,213.923996 79.543694,220.917740 79.543327,227.910370 
	C79.542549,242.532394 81.309868,244.110489 96.123070,243.005463 
	C100.400360,242.686371 103.208878,240.563049 103.452705,236.329834 
	C103.794121,230.402588 103.538872,224.440979 103.538872,218.274094 
	C99.611412,218.274094 96.054359,218.274094 92.248413,218.274094 
	C92.245049,221.780930 90.429390,225.649521 96.002899,226.228928 
	C96.002899,228.311691 95.907982,230.141068 96.023819,231.957016 
	C96.227837,235.155197 94.205681,235.344391 91.829193,235.344803 
	C89.521355,235.345200 87.417580,235.342758 87.433762,232.137924 
	C87.474121,224.146637 87.474014,216.154877 87.434525,208.163589 
	C87.418983,205.017899 89.404205,204.883057 91.781731,204.904053 
	C94.159790,204.925049 96.185776,205.050491 96.028961,208.252548 
	C95.967445,209.508530 96.203201,210.779053 96.306351,212.077850 
	C98.884628,212.077850 101.121956,212.077850 103.794220,212.077850 
	C103.286789,206.472916 105.527931,200.420883 97.578529,197.462982 
M307.160828,225.861862 
	C311.676178,217.724533 310.172760,209.205872 308.300415,200.841827 
	C307.974731,199.386765 305.061096,197.689056 303.230438,197.546570 
	C297.677307,197.114380 292.069092,197.390137 286.286255,197.390137 
	C286.286255,212.727905 286.286255,227.601807 286.286255,242.655182 
	C288.897247,242.655182 291.254395,242.655182 294.030212,242.655182 
	C294.030212,237.553299 294.030212,232.797073 294.030212,228.040863 
	C294.442047,227.769363 294.853882,227.497864 295.265717,227.226364 
	C296.307220,228.238998 297.758514,229.071991 298.298828,230.304352 
	C299.219360,232.404053 299.567474,234.754700 300.155975,236.999939 
	C301.864746,243.518997 301.864746,243.518997 309.317963,242.518082 
	C308.781433,240.117661 308.151978,237.767685 307.748779,235.379517 
	C307.244019,232.389755 306.925110,229.368607 307.160828,225.861862 
M109.039246,235.412292 
	C109.039246,237.846252 109.039246,240.280228 109.039246,242.725922 
	C111.982704,242.725922 114.236168,242.725922 116.923264,242.725922 
	C116.923264,237.686966 116.923264,232.916718 116.923264,228.146469 
	C117.357239,227.864334 117.791214,227.582184 118.225182,227.300034 
	C119.322220,228.398941 120.833153,229.314087 121.421310,230.638916 
	C122.351921,232.735123 122.648262,235.110016 123.241486,237.359467 
	C124.934761,243.780258 125.308235,243.983917 132.105927,242.267792 
	C132.083405,241.783813 132.125488,241.276901 132.027634,240.798645 
	C130.732101,234.467361 126.772064,228.110748 132.275635,221.848618 
	C132.560547,221.524429 132.574158,220.890488 132.576385,220.400131 
	C132.600693,215.075546 132.766449,209.743652 132.541092,204.428711 
	C132.395752,201.000458 130.666580,197.963547 127.010864,197.710724 
	C121.134895,197.304352 115.210266,197.601685 109.039246,197.601685 
	C109.039246,210.146347 109.039246,222.291367 109.039246,235.412292 
M192.503632,274.637848 
	C193.922745,274.123016 196.194016,273.989990 196.623398,273.031708 
	C199.522781,266.560822 194.933929,259.465210 187.906052,259.184265 
	C185.912903,259.104584 183.905823,259.076416 181.918152,259.213501 
	C176.464371,259.589630 174.153366,261.968903 173.902573,267.373993 
	C173.825516,269.034637 173.839691,270.701965 173.874344,272.364929 
	C174.139008,285.068604 171.739166,282.094238 183.603439,285.695923 
	C188.857849,287.290985 189.677063,290.070557 188.781937,294.280884 
	C188.527039,295.479828 186.566452,297.053375 185.341736,297.095062 
	C184.189194,297.134277 182.596664,295.592590 181.900574,294.352051 
	C181.266281,293.221558 181.575378,291.561798 181.471512,290.173553 
	C178.728058,290.173553 176.480499,290.173553 174.278107,290.173553 
	C172.837585,302.879578 174.762878,305.100494 186.844574,305.013489 
	C187.510117,305.008698 188.177185,305.031769 188.840973,304.995300 
	C193.926743,304.716003 196.351624,302.399658 196.779724,297.265167 
	C196.931351,295.446533 196.871475,293.606140 196.838699,291.776917 
	C196.632751,280.284485 198.703903,282.342529 187.515015,279.062469 
	C182.715927,277.655548 181.131866,275.386475 181.713638,270.703217 
	C181.989670,268.481110 182.145920,266.885651 185.000122,266.886139 
	C187.685471,266.886566 189.105820,267.682129 188.956070,270.576477 
	C188.855560,272.518982 188.421768,274.845245 192.503632,274.637848 
M362.203064,274.422302 
	C362.268951,283.934967 361.291229,282.315613 370.180847,285.218506 
	C371.915741,285.785034 374.595123,285.916473 375.169128,287.075531 
	C376.409668,289.580566 376.835968,292.613098 376.927795,295.451447 
	C376.944885,295.979767 372.759583,297.507111 372.363953,297.032166 
	C370.876068,295.245941 370.153290,292.822418 368.959229,290.237976 
	C367.323273,290.237976 364.957031,290.237976 362.268585,290.237976 
	C362.268585,292.898438 362.127686,295.210297 362.300140,297.498566 
	C362.590973,301.358002 364.382416,304.537262 368.463684,304.796570 
	C377.750702,305.386597 382.083618,305.757782 384.324860,301.006500 
	C384.934753,299.713470 385.090454,298.125793 385.136841,296.663269 
	C385.252777,293.008301 385.068878,289.342346 385.231689,285.690887 
	C385.354095,282.945953 384.425781,281.441711 381.637482,280.695496 
	C377.805847,279.670074 374.092224,278.203674 370.138733,276.862000 
	C370.138733,274.402405 369.718475,271.972931 370.304626,269.817078 
	C370.628967,268.624084 372.568512,267.299652 373.910706,267.141083 
	C374.918335,267.022034 376.883484,268.491180 377.132904,269.555481 
	C378.489899,275.345856 378.561127,275.498322 385.112823,273.833557 
	C385.112823,271.422699 385.177734,268.942383 385.097382,266.466797 
	C384.981323,262.891815 383.201263,260.609558 379.696075,259.606384 
	C367.848541,256.215515 362.207184,260.350983 362.203217,272.491882 
	C362.203125,272.824463 362.203125,273.157074 362.203064,274.422302 
M151.247803,304.866058 
	C154.572906,304.900269 158.041580,305.530518 161.176529,304.775330 
	C163.575638,304.197418 167.134354,302.116211 167.423203,300.272247 
	C168.312195,294.597260 168.943100,288.423065 167.468185,283.048248 
	C166.821671,280.692230 160.834488,279.788544 157.257431,278.260376 
	C156.498291,277.936066 155.622086,277.868256 154.889511,277.502563 
	C152.694534,276.406982 152.257675,268.721191 154.275192,267.338104 
	C156.228226,265.999237 160.295990,267.231842 160.142593,269.339417 
	C159.649033,276.121368 163.730499,274.857971 167.684906,274.255554 
	C169.570099,261.844055 167.034271,258.903259 154.922180,259.164337 
	C154.589569,259.171509 154.255981,259.154205 153.924118,259.172089 
	C148.025040,259.490051 145.540390,261.944061 145.226852,267.844299 
	C145.138687,269.503479 145.186752,271.171173 145.206268,272.834564 
	C145.346375,284.783722 143.667664,282.267731 154.553360,285.543640 
	C159.767609,287.112762 161.209290,289.758881 160.130905,294.343292 
	C159.851501,295.531067 157.888000,297.124268 156.742355,297.089081 
	C155.512405,297.051331 153.966812,295.524567 153.244476,294.256897 
	C152.607834,293.139648 152.916245,291.483856 152.818542,290.211792 
	C150.122665,290.211792 147.878296,290.211792 145.689621,290.211792 
	C144.480606,299.163177 145.374878,301.799255 151.247803,304.866058 
M164.600815,231.872696 
	C162.359283,221.483505 159.990997,211.119156 157.949020,200.690887 
	C157.287003,197.309967 155.370850,196.935974 152.636856,197.155975 
	C150.152054,197.355927 147.467224,196.294495 146.708313,200.457840 
	C144.952148,210.092010 142.638107,219.624146 140.568863,229.201675 
	C139.607971,233.649216 138.690353,238.106110 137.710205,242.762726 
	C140.696472,242.762726 142.956406,242.762726 145.395142,242.762726 
	C146.075226,239.741547 146.713837,236.904648 147.327988,234.176407 
	C150.689819,234.176407 154.528854,233.048126 156.396606,234.484024 
	C158.386261,236.013626 158.510880,239.969162 159.403091,242.721558 
	C161.945908,242.721558 164.215134,242.721558 166.787903,242.721558 
	C166.081253,239.152710 165.440979,235.918991 164.600815,231.872696 
M328.650116,300.987122 
	C325.846680,288.174652 322.952911,275.380737 320.312073,262.534821 
	C319.748779,259.794830 318.542511,258.743622 315.970764,259.192535 
	C313.641998,259.599030 310.289856,257.602142 309.408508,261.663788 
	C306.317200,275.910553 303.284363,290.170044 300.158813,304.753632 
	C302.989716,304.753632 305.410095,304.753632 307.862091,304.753632 
	C308.585449,301.706604 309.259186,298.868591 309.891602,296.204681 
	C313.515839,296.204681 316.626984,296.204681 319.691650,296.204681 
	C320.363739,299.179413 320.978027,301.898315 321.753296,305.329742 
	C323.988739,303.160126 328.851807,308.761871 328.650116,300.987122 
M210.289337,267.873718 
	C215.128036,267.416718 219.966721,266.959717 225.045837,266.480011 
	C225.045837,264.191833 225.045837,261.813477 225.045837,259.552551 
	C217.419022,259.552551 210.201263,259.552551 202.831268,259.552551 
	C202.831268,274.837067 202.831268,289.741028 202.831268,304.799347 
	C210.366150,304.799347 217.617920,304.799347 224.964340,304.799347 
	C224.964340,302.236450 224.964340,299.893524 224.964340,297.178223 
	C219.879044,297.178223 215.273834,297.178223 210.537537,297.178223 
	C210.537537,293.249969 210.537537,289.713013 210.537537,285.760834 
	C214.486923,285.760834 218.083786,285.760834 221.688721,285.760834 
	C221.688721,283.096985 221.688721,280.867615 221.688721,278.151154 
	C217.792587,278.151154 214.214447,278.151154 210.198196,278.151154 
	C210.198196,274.705933 210.198196,271.752686 210.289337,267.873718 
M116.863205,289.496704 
	C116.863205,294.578369 116.863205,299.660065 116.863205,304.722321 
	C124.824829,304.722321 132.061417,304.722321 139.416336,304.722321 
	C139.416336,302.214355 139.416336,300.010651 139.416336,297.213287 
	C134.326614,297.213287 129.600189,297.213287 124.846291,297.213287 
	C124.846291,293.197266 124.846291,289.788788 124.846291,285.893677 
	C128.683792,285.893677 132.261047,285.893677 135.948517,285.893677 
	C135.948517,283.159943 135.948517,280.923798 135.948517,278.138367 
	C132.084732,278.138367 128.512405,278.138367 124.839325,278.138367 
	C124.839325,274.183685 124.839325,270.784790 124.839325,266.867859 
	C129.822693,266.867859 134.560760,266.867859 139.188263,266.867859 
	C140.285156,260.348938 140.083725,259.313721 137.234558,259.232513 
	C130.632751,259.044403 124.021919,259.172699 116.863190,259.172699 
	C116.863190,269.300659 116.863190,278.899414 116.863205,289.496704 
M267.346649,272.567383 
	C267.346649,283.295471 267.346649,294.023590 267.346649,304.710358 
	C270.398926,304.710358 272.640900,304.710358 275.364685,304.710358 
	C275.364685,292.016174 275.364685,279.623047 275.364685,267.195251 
	C278.100372,266.988434 280.352051,266.818207 282.528412,266.653687 
	C282.528412,263.979553 282.528412,261.766571 282.528412,259.455383 
	C274.889740,259.455383 267.655273,259.455383 260.227417,259.455383 
	C260.227417,261.989288 260.227417,264.221527 260.227417,266.876831 
	C262.579376,266.876831 264.666504,266.876831 267.072235,266.876831 
	C267.178650,268.702423 267.262695,270.143829 267.346649,272.567383 
M223.400940,203.998840 
	C223.257782,201.535431 225.660141,197.681763 221.190399,197.317520 
	C214.616501,196.781815 207.966537,197.179367 201.163727,197.179367 
	C201.163727,200.020813 201.163727,202.357040 201.163727,204.740158 
	C203.679810,204.910019 205.763199,205.050690 208.326538,205.223740 
	C208.326538,217.929520 208.326538,230.325958 208.326538,242.741638 
	C211.095703,242.741638 213.351181,242.741638 216.042435,242.741638 
	C216.042435,230.068771 216.042435,217.659134 216.042435,205.180206 
	C218.602005,204.990997 220.725876,204.834000 223.400940,203.998840 
M334.986176,209.654510 
	C334.986176,220.718262 334.986176,231.782013 334.986176,242.668198 
	C338.007507,242.668198 340.254761,242.668198 342.995300,242.668198 
	C342.995300,229.947342 342.995300,217.563126 342.995300,205.137070 
	C345.591339,204.967606 347.689392,204.830658 350.014313,204.678894 
	C350.014313,202.172363 350.014313,199.943741 350.014313,197.165634 
	C344.283447,197.165634 338.839233,197.163177 333.395020,197.166245 
	C326.659729,197.170029 326.074463,198.026535 328.340912,205.002808 
	C330.349579,205.002808 332.459229,205.002808 334.811310,205.002808 
	C334.878967,206.431946 334.932526,207.564163 334.986176,209.654510 
M335.900604,259.207886 
	C335.331787,260.750580 334.308746,262.282410 334.271637,263.837799 
	C334.097290,271.144470 334.193726,278.457672 334.193634,285.768524 
	C334.193542,292.032867 334.193634,298.297241 334.193634,304.663879 
	C342.019135,304.663879 349.210999,304.663879 356.351044,304.663879 
	C357.265808,297.312164 357.265808,297.311493 350.495331,297.306000 
	C347.874908,297.303864 345.254486,297.305634 341.947571,297.305634 
	C341.947571,284.355865 341.947571,271.849487 341.947571,259.163452 
	C339.767548,259.163452 338.279175,259.163452 335.900604,259.207886 
M354.885010,241.221970 
	C357.198151,242.030396 359.511322,242.838806 362.360596,243.834595 
	C362.360596,227.563171 362.360596,212.544205 362.360596,197.524872 
	C359.699921,197.524872 357.467377,197.524872 354.866699,197.524872 
	C354.866699,212.014267 354.866699,226.143997 354.885010,241.221970 
M287.201141,276.503204 
	C287.201141,285.919067 287.201141,295.334961 287.201141,304.711578 
	C290.247162,304.711578 292.496429,304.711578 294.662628,304.711578 
	C294.662628,289.386536 294.662628,274.371155 294.662628,259.074188 
	C291.958618,259.212738 289.731171,259.326843 287.201172,259.456482 
	C287.201172,265.223328 287.201172,270.364441 287.201141,276.503204 
M322.924988,199.012238 
	C320.487671,198.266220 318.050354,197.520187 315.442474,196.721970 
	C315.442474,213.013000 315.442474,227.907425 315.442474,242.664581 
	C318.097198,242.664581 320.345154,242.664581 322.948608,242.664581 
	C322.948608,228.193726 322.948608,214.064560 322.924988,199.012238 
z"/>
<path fill="#183A92" opacity="1.000000" stroke="none" 
	d="
M61.960991,310.428986 
	C67.221062,310.050873 72.599770,310.028046 78.353477,310.390930 
	C79.200592,312.365875 79.562958,313.997772 80.161148,315.538025 
	C90.569946,342.339600 105.975777,365.792938 127.351570,385.126801 
	C170.236023,423.914764 220.775970,439.772369 277.653595,431.342346 
	C336.582977,422.608276 380.893982,390.764587 410.583496,339.142395 
	C415.812531,330.050537 418.943329,319.751923 423.043121,310.010620 
	C428.423553,310.013062 433.804016,310.015533 439.660004,310.040894 
	C433.358612,330.187683 424.382385,349.260925 411.709595,366.344879 
	C377.962708,411.838470 333.273804,439.738983 276.900238,447.029541 
	C212.929001,455.302673 157.616547,435.922485 111.339714,391.268768 
	C88.056259,368.802002 72.210594,341.462677 61.960991,310.428986 
z"/>
<path fill="#183A92" opacity="1.000000" stroke="none" 
	d="
M439.918518,191.630722 
	C434.702637,191.963120 429.312744,191.973114 423.508972,191.594437 
	C422.962372,190.555832 422.926880,189.866776 422.683289,189.261490 
	C395.131500,120.799942 345.472961,79.562141 271.890015,70.098160 
	C217.988235,63.165508 170.176331,79.150589 129.361572,115.083969 
	C105.540276,136.056259 88.394753,161.683319 78.261665,191.870850 
	C73.092781,191.900742 67.923897,191.930634 62.274559,191.934296 
	C75.776535,149.048828 101.056473,114.447083 137.949097,88.530327 
	C163.971252,70.250000 192.860046,59.010647 224.433792,54.868969 
	C271.767639,48.659954 315.861694,58.042274 356.185425,83.511749 
	C395.540131,108.369194 422.815643,143.104996 438.140839,187.132599 
	C438.630768,188.540039 439.207977,189.917099 439.918518,191.630722 
z"/>
<path fill="#A0A0A0" opacity="1.000000" stroke="none" 
	d="
M367.960968,435.227234 
	C360.082458,433.312225 357.362579,426.984497 361.453186,418.967896 
	C361.909729,418.910950 362.265503,419.229736 362.155853,419.604004 
	C359.613129,426.984985 361.119049,430.572876 367.982544,434.404602 
	C367.972900,434.861664 367.966919,435.044464 367.960968,435.227234 
z"/>
<path fill="#A8A8A8" opacity="1.000000" stroke="none" 
	d="
M372.979645,414.160980 
	C380.503662,416.719940 382.855377,421.930145 379.623230,430.034119 
	C379.001282,430.007690 378.860107,429.891968 378.801514,429.406891 
	C380.808258,422.346588 379.381256,419.130585 372.915497,415.187866 
	C372.953491,414.617523 372.966553,414.389252 372.979645,414.160980 
z"/>
<path fill="#A8A8A8" opacity="1.000000" stroke="none" 
	d="
M368.251343,435.447601 
	C367.966919,435.044464 367.972900,434.861664 368.400452,434.383484 
	C371.360687,433.502869 373.899323,432.917694 376.632812,432.558838 
	C376.958466,432.935272 377.089264,433.085419 377.220062,433.235535 
	C374.327271,434.046356 371.434479,434.857147 368.251343,435.447601 
z"/>
<path fill="#A0A0A0" opacity="1.000000" stroke="none" 
	d="
M372.563507,414.075684 
	C372.966553,414.389252 372.953491,414.617523 372.539185,415.086395 
	C369.156006,416.280029 366.173981,417.233093 363.018616,418.017639 
	C362.845245,417.849121 362.473602,417.539795 362.473602,417.539795 
	C364.794830,413.894562 368.401642,413.753204 372.563507,414.075684 
z"/>
<path fill="#A8A8A8" opacity="1.000000" stroke="none" 
	d="
M379.343689,430.309021 
	C379.266937,430.969391 378.988922,431.444092 378.259644,431.882690 
	C377.663208,431.721008 377.518005,431.595459 377.533752,431.250793 
	C378.036102,430.613190 378.377533,430.194733 378.718933,429.776245 
	C378.860107,429.891968 379.001282,430.007690 379.343689,430.309021 
z"/>
<path fill="#A0A0A0" opacity="1.000000" stroke="none" 
	d="
M361.734924,418.748199 
	C361.712982,418.310150 361.897064,418.057648 362.292999,417.683868 
	C362.473602,417.539795 362.845245,417.849121 362.914673,418.232727 
	C362.808075,418.895142 362.568542,419.099609 362.265503,419.229736 
	C362.265503,419.229736 361.909729,418.910950 361.734924,418.748199 
z"/>
<path fill="#A8A8A8" opacity="1.000000" stroke="none" 
	d="
M378.025146,432.036194 
	C378.115692,432.537872 377.918488,432.795532 377.435150,433.117188 
	C377.089264,433.085419 376.958466,432.935272 376.807190,432.435577 
	C377.006287,431.903656 377.201630,431.698303 377.372772,431.469910 
	C377.518005,431.595459 377.663208,431.721008 378.025146,432.036194 
z"/>
<path fill="#153892" opacity="1.000000" stroke="none" 
	d="
M412.092377,190.836548 
	C410.391724,191.223755 408.691284,191.948959 406.990417,191.949844 
	C302.949799,192.003662 198.909149,192.000259 94.868500,191.976761 
	C93.402725,191.976440 91.937019,191.654800 90.216141,190.795441 
	C101.929230,158.844742 121.290192,133.091629 148.061996,113.055916 
	C216.213242,62.052319 311.445496,68.631172 371.897491,128.491501 
	C389.862000,146.280182 403.639252,166.866821 412.092377,190.836548 
M240.232239,147.968338 
	C238.713898,151.139694 237.195572,154.311050 235.078629,157.861816 
	C232.240463,161.526047 232.240463,161.526047 235.515305,163.946945 
	C235.687698,163.912125 235.860107,163.877289 236.795547,164.006149 
	C239.390182,163.012741 243.347443,164.477325 244.733887,160.031174 
	C248.249313,157.953674 251.866714,156.022110 255.204376,153.690170 
	C255.982910,153.146225 255.811462,151.242584 255.941620,149.497421 
	C255.941620,149.497421 256.082947,149.032013 256.825226,149.001221 
	C263.626709,146.957138 267.630768,142.705124 267.769012,137.980927 
	C271.748535,133.715546 265.596313,133.379990 264.210754,130.750748 
	C261.503510,132.239197 258.796295,133.727646 255.491150,134.978867 
	C254.563797,135.266403 253.636459,135.553955 252.172394,135.966064 
	C251.794724,136.348160 251.417038,136.730255 250.484283,137.219452 
	C250.018234,137.489075 249.552170,137.758698 248.425034,138.205338 
	C246.295013,141.141190 244.164978,144.077026 241.532379,147.030609 
	C241.324234,147.273254 241.116074,147.515915 240.232239,147.968338 
z"/>
<path fill="#153992" opacity="1.000000" stroke="none" 
	d="
M89.909439,311.158569 
	C91.611038,310.773193 93.312462,310.051361 95.014259,310.050476 
	C199.060333,309.996918 303.106415,310.000244 407.152496,310.024475 
	C408.616638,310.024811 410.080719,310.356598 411.795410,311.223022 
	C383.821564,378.942139 333.667084,417.019135 261.092743,422.594727 
	C210.720657,426.464600 166.886871,408.956818 130.495148,373.818695 
	C112.185349,356.139648 98.426567,335.291077 89.909439,311.158569 
M164.793182,343.270416 
	C164.730072,341.885254 164.666962,340.500061 164.556915,338.084808 
	C160.804916,341.450958 157.824585,344.124817 154.533936,347.077057 
	C157.573853,349.658722 160.192490,351.882599 163.114960,354.697968 
	C163.624283,354.442169 164.133621,354.186371 164.777679,353.109955 
	C164.795502,351.723083 164.813324,350.336182 165.618454,348.781006 
	C170.395966,348.587006 170.395966,348.587006 169.480728,344.822693 
	C167.882462,344.571777 166.313385,344.325439 164.793182,343.270416 
M336.738464,344.863800 
	C336.738464,347.834320 336.738464,350.804871 336.738464,353.775391 
	C337.169922,354.066772 337.601410,354.358154 338.032867,354.649536 
	C341.074646,352.267731 344.116455,349.885925 347.786316,347.012268 
	C344.141449,344.138916 341.097015,341.738861 337.314697,338.757141 
	C337.088623,341.467957 336.980652,342.762604 336.738464,344.863800 
M291.198853,348.115417 
	C292.219849,345.851959 291.634674,344.662384 289.005554,344.702148 
	C286.062775,344.746704 283.118774,344.712402 280.175323,344.712402 
	C279.891876,345.181915 279.608398,345.651428 279.324951,346.120941 
	C280.425781,346.973816 281.450134,348.402802 282.643158,348.561218 
	C285.229187,348.904541 287.901520,348.597870 291.198853,348.115417 
M210.776550,348.089325 
	C219.577103,349.829224 222.128616,349.104706 221.645020,344.709717 
	C218.893661,344.709717 216.074600,344.463837 213.338348,344.832489 
	C212.265656,344.977020 211.378510,346.498718 210.776550,348.089325 
M297.504272,348.153351 
	C306.565948,349.699310 308.583221,349.129578 308.450531,344.720093 
	C305.483948,344.720093 302.481964,344.517548 299.538513,344.843475 
	C298.655487,344.941284 297.935669,346.512848 297.504272,348.153351 
M196.008606,344.715729 
	C195.042496,345.451355 194.076385,346.186951 193.110291,346.922577 
	C193.933441,347.502686 194.714691,348.494141 195.587860,348.583099 
	C197.891556,348.817810 200.288239,348.948456 202.539398,348.532776 
	C203.588837,348.338989 204.387070,346.784729 205.299179,345.847168 
	C204.968933,345.469818 204.638687,345.092499 204.308441,344.715179 
	C201.826492,344.715179 199.344559,344.715179 196.008606,344.715729 
M254.839676,344.723175 
	C251.715866,344.723175 248.592056,344.723175 245.468246,344.723175 
	C245.206085,345.107819 244.943924,345.492462 244.681763,345.877106 
	C245.535309,346.803314 246.431305,348.552673 247.234924,348.511200 
	C250.464920,348.344604 253.666321,347.623932 256.878296,347.108002 
	C256.474823,346.332886 256.071381,345.557739 254.839676,344.723175 
M322.245544,344.708374 
	C320.428406,344.710754 318.584442,344.531006 316.805634,344.793243 
	C315.931763,344.922119 315.178680,345.870178 314.370911,346.447479 
	C315.199799,347.189789 315.976746,348.489044 316.867157,348.572205 
	C319.784027,348.844452 322.742218,348.674377 325.684509,348.674377 
	C325.949615,348.141998 326.214691,347.609619 326.479797,347.077271 
	C325.352905,346.288025 324.226044,345.498779 322.245544,344.708374 
M178.895172,344.709198 
	C175.589371,344.462067 175.457397,346.035217 176.612946,348.664062 
	C179.719238,348.664062 182.691757,348.805573 185.632523,348.562683 
	C186.351334,348.503326 186.966125,347.184601 187.628738,346.444855 
	C186.985489,345.871155 186.390991,344.885529 185.689636,344.802490 
	C183.734406,344.570984 181.734833,344.713745 178.895172,344.709198 
M227.983231,347.451385 
	C231.419708,347.827972 234.852676,348.283691 238.299072,348.437592 
	C238.588486,348.450500 239.556229,346.132538 239.190247,345.422424 
	C238.286118,343.667999 229.539871,344.719879 227.983231,347.451385 
M262.427429,345.824219 
	C264.156616,352.029205 269.080048,347.172180 272.252625,348.500854 
	C272.522949,348.614075 273.689636,346.586884 275.214050,344.488312 
	C270.017639,344.763092 266.420532,344.953308 262.427429,345.824219 
z"/>
<path fill="#FA9703" opacity="1.000000" stroke="none" 
	d="
M412.429993,191.074402 
	C403.639252,166.866821 389.862000,146.280182 371.897491,128.491501 
	C311.445496,68.631172 216.213242,62.052319 148.061996,113.055916 
	C121.290192,133.091629 101.929230,158.844742 89.934174,190.472473 
	C86.316414,191.189636 82.725487,191.542114 78.698112,191.882721 
	C88.394753,161.683319 105.540276,136.056259 129.361572,115.083969 
	C170.176331,79.150589 217.988235,63.165508 271.890015,70.098160 
	C345.472961,79.562141 395.131500,120.799942 422.683289,189.261490 
	C422.926880,189.866776 422.962372,190.555832 423.040344,191.588593 
	C419.579620,191.751678 416.173584,191.531967 412.429993,191.074402 
z"/>
<path fill="#FA9703" opacity="1.000000" stroke="none" 
	d="
M89.572075,310.918365 
	C98.426567,335.291077 112.185349,356.139648 130.495148,373.818695 
	C166.886871,408.956818 210.720657,426.464600 261.092743,422.594727 
	C333.667084,417.019135 383.821564,378.942139 412.075867,311.549316 
	C415.450623,310.808655 418.795471,310.431000 422.591736,310.031982 
	C418.943329,319.751923 415.812531,330.050537 410.583496,339.142395 
	C380.893982,390.764587 336.582977,422.608276 277.653595,431.342346 
	C220.775970,439.772369 170.236023,423.914764 127.351570,385.126801 
	C105.975777,365.792938 90.569946,342.339600 80.161148,315.538025 
	C79.562958,313.997772 79.200592,312.365875 78.815186,310.385132 
	C82.346161,310.221802 85.790428,310.449951 89.572075,310.918365 
z"/>
<path fill="#F7F8FA" opacity="1.000000" stroke="none" 
	d="
M265.164795,232.826569 
	C264.013947,227.734619 262.942230,223.051651 261.870514,218.368683 
	C261.608673,218.339050 261.346863,218.309402 261.085022,218.279770 
	C259.653809,224.445328 258.218750,230.610016 256.792419,236.776703 
	C255.207001,243.631302 255.210464,243.632111 247.277603,242.480484 
	C245.703003,227.678146 244.114441,212.744659 242.531876,197.867477 
	C250.158707,196.506317 250.377151,196.682312 250.860825,203.268692 
	C251.280640,208.985962 251.753723,214.699310 253.172729,220.642456 
	C253.767853,218.720322 254.482513,216.825806 254.934006,214.870499 
	C255.980469,210.338547 256.665710,205.707153 257.995728,201.265289 
	C258.470367,199.680176 260.381897,198.525299 261.637543,197.174026 
	C262.769440,198.482437 264.541779,199.628052 264.922913,201.127319 
	C266.615204,207.783707 267.908661,214.541504 270.514435,221.258286 
	C271.042847,215.246460 271.629639,209.239059 272.083893,203.221634 
	C272.578705,196.667038 272.783295,196.477081 280.432770,197.881424 
	C278.767456,212.767410 277.096008,227.708359 275.437958,242.529419 
	C267.905029,243.536804 267.905029,243.536804 265.164795,232.826569 
z"/>
<path fill="#F5F6F9" opacity="1.000000" stroke="none" 
	d="
M247.721466,266.094971 
	C247.721436,263.654755 247.721436,261.700073 247.721436,259.457550 
	C250.499695,259.457550 252.725327,259.457550 255.286163,259.457550 
	C255.286163,274.608948 255.286163,289.522491 255.286163,304.373047 
	C249.936676,306.461456 247.354187,304.512665 245.911377,299.264526 
	C244.296509,293.390564 241.880081,287.736938 239.078857,282.031342 
	C239.078857,289.488129 239.078857,296.944885 239.078857,304.699036 
	C236.302200,304.699036 234.047531,304.699036 231.406937,304.699036 
	C231.406937,289.872986 231.406937,274.964996 231.406937,260.021881 
	C237.488571,258.100067 238.106171,258.399353 240.262024,264.348297 
	C242.405197,270.262268 244.556946,276.173096 247.721481,282.002289 
	C247.721481,276.861694 247.721481,271.721100 247.721466,266.094971 
z"/>
<path fill="#F5F7FA" opacity="1.000000" stroke="none" 
	d="
M368.204895,202.300461 
	C368.312653,200.398956 368.420288,198.962418 368.513000,197.724838 
	C373.652466,196.078308 376.330566,197.452301 377.728088,202.449661 
	C379.441345,208.575882 381.933441,214.484283 385.030457,220.305450 
	C385.030457,212.781601 385.030457,205.257751 385.030457,197.826843 
	C392.798126,196.404861 392.869476,196.458481 392.870392,203.477966 
	C392.872040,216.435791 392.870850,229.393616 392.870850,242.251999 
	C385.593201,243.841476 385.593201,243.841476 383.271027,237.361420 
	C381.173706,231.508926 379.076324,225.656464 376.978973,219.803970 
	C376.656677,219.869690 376.334412,219.935410 376.012115,220.001114 
	C376.012115,227.531113 376.012115,235.061111 376.012115,242.794434 
	C373.332397,242.794434 371.082550,242.794434 368.204742,242.794434 
	C368.204742,229.311096 368.204742,216.038269 368.204895,202.300461 
z"/>
<path fill="#F7F8FB" opacity="1.000000" stroke="none" 
	d="
M171.871841,225.998520 
	C171.871841,216.217346 171.871841,206.935974 171.871841,197.811188 
	C177.031769,196.150620 179.776108,197.301315 181.161011,202.371643 
	C182.759567,208.224228 185.190079,213.849579 188.311295,219.484802 
	C188.311295,212.201416 188.311295,204.918045 188.311295,197.418228 
	C191.136948,197.418228 193.245270,197.418228 195.789856,197.418228 
	C195.789856,212.460693 195.789856,227.492722 195.789856,242.588501 
	C191.039825,243.914261 188.128448,242.943466 186.764084,237.546646 
	C185.289200,231.712769 182.758286,226.145874 179.752014,220.648727 
	C179.752014,227.883011 179.752014,235.117310 179.752014,242.676117 
	C177.082962,242.676117 174.839722,242.676117 171.871841,242.676117 
	C171.871841,237.368469 171.871841,231.933395 171.871841,225.998520 
z"/>
<path fill="#F7F8FB" opacity="1.000000" stroke="none" 
	d="
M398.543243,219.008392 
	C398.546570,214.518860 398.459503,210.523163 398.593750,206.534927 
	C398.654358,204.735413 398.633575,202.607666 399.546570,201.218124 
	C403.708130,194.884415 410.272156,197.365463 415.970795,197.461517 
	C420.228455,197.533279 422.338776,200.694855 422.639221,204.832214 
	C422.805298,207.119156 422.668976,209.428070 422.668976,212.088806 
	C420.097046,212.088806 417.863129,212.088806 415.298584,212.088806 
	C415.196594,210.759232 414.968781,209.486160 415.027771,208.226501 
	C415.178406,205.009460 413.117218,204.935837 410.761047,204.904510 
	C408.371033,204.872742 406.416229,205.046494 406.433044,208.179321 
	C406.475861,216.164322 406.474365,224.149857 406.433441,232.134872 
	C406.417084,235.333267 408.511047,235.348465 410.821075,235.344604 
	C413.187408,235.340652 415.223999,235.173401 415.023315,231.970276 
	C414.909576,230.155197 415.002808,228.327148 415.002808,226.233322 
	C409.490814,225.652863 411.159790,221.833542 411.266052,218.282562 
	C415.033691,218.282562 418.590576,218.282562 422.444519,218.282562 
	C422.444519,224.569687 422.460327,230.672440 422.421173,236.774826 
	C422.417053,237.417130 422.214050,238.129166 421.892670,238.687653 
	C417.794556,245.809769 410.935059,242.574860 405.193451,242.784668 
	C400.910980,242.941177 398.770264,239.683853 398.663940,235.472198 
	C398.529602,230.152252 398.575165,224.827789 398.543243,219.008392 
z"/>
<path fill="#F7F8FB" opacity="1.000000" stroke="none" 
	d="
M97.973801,197.591858 
	C105.527931,200.420883 103.286789,206.472916 103.794220,212.077850 
	C101.121956,212.077850 98.884628,212.077850 96.306351,212.077850 
	C96.203201,210.779053 95.967445,209.508530 96.028961,208.252548 
	C96.185776,205.050491 94.159790,204.925049 91.781731,204.904053 
	C89.404205,204.883057 87.418983,205.017899 87.434525,208.163589 
	C87.474014,216.154877 87.474121,224.146637 87.433762,232.137924 
	C87.417580,235.342758 89.521355,235.345200 91.829193,235.344803 
	C94.205681,235.344391 96.227837,235.155197 96.023819,231.957016 
	C95.907982,230.141068 96.002899,228.311691 96.002899,226.228928 
	C90.429390,225.649521 92.245049,221.780930 92.248413,218.274094 
	C96.054359,218.274094 99.611412,218.274094 103.538872,218.274094 
	C103.538872,224.440979 103.794121,230.402588 103.452705,236.329834 
	C103.208878,240.563049 100.400360,242.686371 96.123070,243.005463 
	C81.309868,244.110489 79.542549,242.532394 79.543327,227.910370 
	C79.543694,220.917740 79.469009,213.923996 79.569695,206.932785 
	C79.677032,199.479904 82.027786,197.236923 89.609200,197.188980 
	C92.264954,197.172180 94.922050,197.365570 97.973801,197.591858 
z"/>
<path fill="#F7F8FB" opacity="1.000000" stroke="none" 
	d="
M306.843384,226.111435 
	C306.925110,229.368607 307.244019,232.389755 307.748779,235.379517 
	C308.151978,237.767685 308.781433,240.117661 309.317963,242.518082 
	C301.864746,243.518997 301.864746,243.518997 300.155975,236.999939 
	C299.567474,234.754700 299.219360,232.404053 298.298828,230.304352 
	C297.758514,229.071991 296.307220,228.238998 295.265717,227.226364 
	C294.853882,227.497864 294.442047,227.769363 294.030212,228.040863 
	C294.030212,232.797073 294.030212,237.553299 294.030212,242.655182 
	C291.254395,242.655182 288.897247,242.655182 286.286255,242.655182 
	C286.286255,227.601807 286.286255,212.727905 286.286255,197.390137 
	C292.069092,197.390137 297.677307,197.114380 303.230438,197.546570 
	C305.061096,197.689056 307.974731,199.386765 308.300415,200.841827 
	C310.172760,209.205872 311.676178,217.724533 306.843384,226.111435 
M293.943573,210.574921 
	C293.943573,213.671906 293.943573,216.768890 293.943573,219.813171 
	C302.018524,220.355698 302.018524,220.355698 301.841919,209.937225 
	C301.752625,204.671204 301.537811,204.536301 294.138275,205.305420 
	C294.074707,206.712570 294.009155,208.164124 293.943573,210.574921 
z"/>
<path fill="#F7F8FB" opacity="1.000000" stroke="none" 
	d="
M109.039246,234.924347 
	C109.039246,222.291367 109.039246,210.146347 109.039246,197.601685 
	C115.210266,197.601685 121.134895,197.304352 127.010864,197.710724 
	C130.666580,197.963547 132.395752,201.000458 132.541092,204.428711 
	C132.766449,209.743652 132.600693,215.075546 132.576385,220.400131 
	C132.574158,220.890488 132.560547,221.524429 132.275635,221.848618 
	C126.772064,228.110748 130.732101,234.467361 132.027634,240.798645 
	C132.125488,241.276901 132.083405,241.783813 132.105927,242.267792 
	C125.308235,243.983917 124.934761,243.780258 123.241486,237.359467 
	C122.648262,235.110016 122.351921,232.735123 121.421310,230.638916 
	C120.833153,229.314087 119.322220,228.398941 118.225182,227.300034 
	C117.791214,227.582184 117.357239,227.864334 116.923264,228.146469 
	C116.923264,232.916718 116.923264,237.686966 116.923264,242.725922 
	C114.236168,242.725922 111.982704,242.725922 109.039246,242.725922 
	C109.039246,240.280228 109.039246,237.846252 109.039246,234.924347 
M121.262756,220.071503 
	C124.698578,219.122131 126.254303,214.162323 124.748497,207.626068 
	C123.613869,202.700943 119.910675,205.617264 116.945572,205.046661 
	C116.945572,209.509811 117.101212,213.477493 116.893745,217.426102 
	C116.742043,220.313461 118.447258,220.174957 121.262756,220.071503 
z"/>
<path fill="#F6F7FA" opacity="1.000000" stroke="none" 
	d="
M192.081390,274.635925 
	C188.421768,274.845245 188.855560,272.518982 188.956070,270.576477 
	C189.105820,267.682129 187.685471,266.886566 185.000122,266.886139 
	C182.145920,266.885651 181.989670,268.481110 181.713638,270.703217 
	C181.131866,275.386475 182.715927,277.655548 187.515015,279.062469 
	C198.703903,282.342529 196.632751,280.284485 196.838699,291.776917 
	C196.871475,293.606140 196.931351,295.446533 196.779724,297.265167 
	C196.351624,302.399658 193.926743,304.716003 188.840973,304.995300 
	C188.177185,305.031769 187.510117,305.008698 186.844574,305.013489 
	C174.762878,305.100494 172.837585,302.879578 174.278107,290.173553 
	C176.480499,290.173553 178.728058,290.173553 181.471512,290.173553 
	C181.575378,291.561798 181.266281,293.221558 181.900574,294.352051 
	C182.596664,295.592590 184.189194,297.134277 185.341736,297.095062 
	C186.566452,297.053375 188.527039,295.479828 188.781937,294.280884 
	C189.677063,290.070557 188.857849,287.290985 183.603439,285.695923 
	C171.739166,282.094238 174.139008,285.068604 173.874344,272.364929 
	C173.839691,270.701965 173.825516,269.034637 173.902573,267.373993 
	C174.153366,261.968903 176.464371,259.589630 181.918152,259.213501 
	C183.905823,259.076416 185.912903,259.104584 187.906052,259.184265 
	C194.933929,259.465210 199.522781,266.560822 196.623398,273.031708 
	C196.194016,273.989990 193.922745,274.123016 192.081390,274.635925 
z"/>
<path fill="#F5F6F9" opacity="1.000000" stroke="none" 
	d="
M362.203064,273.955994 
	C362.203125,273.157074 362.203125,272.824463 362.203217,272.491882 
	C362.207184,260.350983 367.848541,256.215515 379.696075,259.606384 
	C383.201263,260.609558 384.981323,262.891815 385.097382,266.466797 
	C385.177734,268.942383 385.112823,271.422699 385.112823,273.833557 
	C378.561127,275.498322 378.489899,275.345856 377.132904,269.555481 
	C376.883484,268.491180 374.918335,267.022034 373.910706,267.141083 
	C372.568512,267.299652 370.628967,268.624084 370.304626,269.817078 
	C369.718475,271.972931 370.138733,274.402405 370.138733,276.862000 
	C374.092224,278.203674 377.805847,279.670074 381.637482,280.695496 
	C384.425781,281.441711 385.354095,282.945953 385.231689,285.690887 
	C385.068878,289.342346 385.252777,293.008301 385.136841,296.663269 
	C385.090454,298.125793 384.934753,299.713470 384.324860,301.006500 
	C382.083618,305.757782 377.750702,305.386597 368.463684,304.796570 
	C364.382416,304.537262 362.590973,301.358002 362.300140,297.498566 
	C362.127686,295.210297 362.268585,292.898438 362.268585,290.237976 
	C364.957031,290.237976 367.323273,290.237976 368.959229,290.237976 
	C370.153290,292.822418 370.876068,295.245941 372.363953,297.032166 
	C372.759583,297.507111 376.944885,295.979767 376.927795,295.451447 
	C376.835968,292.613098 376.409668,289.580566 375.169128,287.075531 
	C374.595123,285.916473 371.915741,285.785034 370.180847,285.218506 
	C361.291229,282.315613 362.268951,283.934967 362.203064,273.955994 
z"/>
<path fill="#F5F6F9" opacity="1.000000" stroke="none" 
	d="
M150.837128,304.761353 
	C145.374878,301.799255 144.480606,299.163177 145.689621,290.211792 
	C147.878296,290.211792 150.122665,290.211792 152.818542,290.211792 
	C152.916245,291.483856 152.607834,293.139648 153.244476,294.256897 
	C153.966812,295.524567 155.512405,297.051331 156.742355,297.089081 
	C157.888000,297.124268 159.851501,295.531067 160.130905,294.343292 
	C161.209290,289.758881 159.767609,287.112762 154.553360,285.543640 
	C143.667664,282.267731 145.346375,284.783722 145.206268,272.834564 
	C145.186752,271.171173 145.138687,269.503479 145.226852,267.844299 
	C145.540390,261.944061 148.025040,259.490051 153.924118,259.172089 
	C154.255981,259.154205 154.589569,259.171509 154.922180,259.164337 
	C167.034271,258.903259 169.570099,261.844055 167.684906,274.255554 
	C163.730499,274.857971 159.649033,276.121368 160.142593,269.339417 
	C160.295990,267.231842 156.228226,265.999237 154.275192,267.338104 
	C152.257675,268.721191 152.694534,276.406982 154.889511,277.502563 
	C155.622086,277.868256 156.498291,277.936066 157.257431,278.260376 
	C160.834488,279.788544 166.821671,280.692230 167.468185,283.048248 
	C168.943100,288.423065 168.312195,294.597260 167.423203,300.272247 
	C167.134354,302.116211 163.575638,304.197418 161.176529,304.775330 
	C158.041580,305.530518 154.572906,304.900269 150.837128,304.761353 
z"/>
<path fill="#F7F8FB" opacity="1.000000" stroke="none" 
	d="
M164.700745,232.278992 
	C165.440979,235.918991 166.081253,239.152710 166.787903,242.721558 
	C164.215134,242.721558 161.945908,242.721558 159.403091,242.721558 
	C158.510880,239.969162 158.386261,236.013626 156.396606,234.484024 
	C154.528854,233.048126 150.689819,234.176407 147.327988,234.176407 
	C146.713837,236.904648 146.075226,239.741547 145.395142,242.762726 
	C142.956406,242.762726 140.696472,242.762726 137.710205,242.762726 
	C138.690353,238.106110 139.607971,233.649216 140.568863,229.201675 
	C142.638107,219.624146 144.952148,210.092010 146.708313,200.457840 
	C147.467224,196.294495 150.152054,197.355927 152.636856,197.155975 
	C155.370850,196.935974 157.287003,197.309967 157.949020,200.690887 
	C159.990997,211.119156 162.359283,221.483505 164.700745,232.278992 
M150.111725,218.664047 
	C149.696777,221.354721 149.281845,224.045410 148.847961,226.858826 
	C151.429764,226.858826 153.494919,226.858826 155.836182,226.858826 
	C154.769089,221.293961 153.767151,216.068863 152.765213,210.843781 
	C152.323975,210.935822 151.882736,211.027847 151.441498,211.119888 
	C151.051926,213.353088 150.662354,215.586273 150.111725,218.664047 
z"/>
<path fill="#F7F8FA" opacity="1.000000" stroke="none" 
	d="
M328.744202,301.410675 
	C328.851807,308.761871 323.988739,303.160126 321.753296,305.329742 
	C320.978027,301.898315 320.363739,299.179413 319.691650,296.204681 
	C316.626984,296.204681 313.515839,296.204681 309.891602,296.204681 
	C309.259186,298.868591 308.585449,301.706604 307.862091,304.753632 
	C305.410095,304.753632 302.989716,304.753632 300.158813,304.753632 
	C303.284363,290.170044 306.317200,275.910553 309.408508,261.663788 
	C310.289856,257.602142 313.641998,259.599030 315.970764,259.192535 
	C318.542511,258.743622 319.748779,259.794830 320.312073,262.534821 
	C322.952911,275.380737 325.846680,288.174652 328.744202,301.410675 
M313.134369,277.800140 
	C312.523468,281.392090 311.912598,284.984070 311.269806,288.763611 
	C313.626617,288.763611 315.819092,288.763611 318.343689,288.763611 
	C317.213379,283.030548 316.169495,277.735870 315.125580,272.441193 
	C314.831238,272.502411 314.536926,272.563660 314.242584,272.624878 
	C313.926239,274.083435 313.609924,275.541992 313.134369,277.800140 
z"/>
<path fill="#F8F9FB" opacity="1.000000" stroke="none" 
	d="
M210.243774,268.336578 
	C210.198196,271.752686 210.198196,274.705933 210.198196,278.151154 
	C214.214447,278.151154 217.792587,278.151154 221.688721,278.151154 
	C221.688721,280.867615 221.688721,283.096985 221.688721,285.760834 
	C218.083786,285.760834 214.486923,285.760834 210.537537,285.760834 
	C210.537537,289.713013 210.537537,293.249969 210.537537,297.178223 
	C215.273834,297.178223 219.879044,297.178223 224.964340,297.178223 
	C224.964340,299.893524 224.964340,302.236450 224.964340,304.799347 
	C217.617920,304.799347 210.366150,304.799347 202.831268,304.799347 
	C202.831268,289.741028 202.831268,274.837067 202.831268,259.552551 
	C210.201263,259.552551 217.419022,259.552551 225.045837,259.552551 
	C225.045837,261.813477 225.045837,264.191833 225.045837,266.480011 
	C219.966721,266.959717 215.128036,267.416718 210.243774,268.336578 
z"/>
<path fill="#F4F5F9" opacity="1.000000" stroke="none" 
	d="
M116.863197,288.997437 
	C116.863190,278.899414 116.863190,269.300659 116.863190,259.172699 
	C124.021919,259.172699 130.632751,259.044403 137.234558,259.232513 
	C140.083725,259.313721 140.285156,260.348938 139.188263,266.867859 
	C134.560760,266.867859 129.822693,266.867859 124.839325,266.867859 
	C124.839325,270.784790 124.839325,274.183685 124.839325,278.138367 
	C128.512405,278.138367 132.084732,278.138367 135.948517,278.138367 
	C135.948517,280.923798 135.948517,283.159943 135.948517,285.893677 
	C132.261047,285.893677 128.683792,285.893677 124.846291,285.893677 
	C124.846291,289.788788 124.846291,293.197266 124.846291,297.213287 
	C129.600189,297.213287 134.326614,297.213287 139.416336,297.213287 
	C139.416336,300.010651 139.416336,302.214355 139.416336,304.722321 
	C132.061417,304.722321 124.824829,304.722321 116.863205,304.722321 
	C116.863205,299.660065 116.863205,294.578369 116.863197,288.997437 
z"/>
<path fill="#F2F4F8" opacity="1.000000" stroke="none" 
	d="
M267.346680,272.076294 
	C267.262695,270.143829 267.178650,268.702423 267.072235,266.876831 
	C264.666504,266.876831 262.579376,266.876831 260.227417,266.876831 
	C260.227417,264.221527 260.227417,261.989288 260.227417,259.455383 
	C267.655273,259.455383 274.889740,259.455383 282.528412,259.455383 
	C282.528412,261.766571 282.528412,263.979553 282.528412,266.653687 
	C280.352051,266.818207 278.100372,266.988434 275.364685,267.195251 
	C275.364685,279.623047 275.364685,292.016174 275.364685,304.710358 
	C272.640900,304.710358 270.398926,304.710358 267.346649,304.710358 
	C267.346649,294.023590 267.346649,283.295471 267.346680,272.076294 
z"/>
<path fill="#F6F7FA" opacity="1.000000" stroke="none" 
	d="
M223.125336,204.337921 
	C220.725876,204.834000 218.602005,204.990997 216.042435,205.180206 
	C216.042435,217.659134 216.042435,230.068771 216.042435,242.741638 
	C213.351181,242.741638 211.095703,242.741638 208.326538,242.741638 
	C208.326538,230.325958 208.326538,217.929520 208.326538,205.223740 
	C205.763199,205.050690 203.679810,204.910019 201.163727,204.740158 
	C201.163727,202.357040 201.163727,200.020813 201.163727,197.179367 
	C207.966537,197.179367 214.616501,196.781815 221.190399,197.317520 
	C225.660141,197.681763 223.257782,201.535431 223.125336,204.337921 
z"/>
<path fill="#F6F7FA" opacity="1.000000" stroke="none" 
	d="
M334.986145,209.175446 
	C334.932526,207.564163 334.878967,206.431946 334.811310,205.002808 
	C332.459229,205.002808 330.349579,205.002808 328.340912,205.002808 
	C326.074463,198.026535 326.659729,197.170029 333.395020,197.166245 
	C338.839233,197.163177 344.283447,197.165634 350.014313,197.165634 
	C350.014313,199.943741 350.014313,202.172363 350.014313,204.678894 
	C347.689392,204.830658 345.591339,204.967606 342.995300,205.137070 
	C342.995300,217.563126 342.995300,229.947342 342.995300,242.668198 
	C340.254761,242.668198 338.007507,242.668198 334.986176,242.668198 
	C334.986176,231.782013 334.986176,220.718262 334.986145,209.175446 
z"/>
<path fill="#F3F5F8" opacity="1.000000" stroke="none" 
	d="
M336.345703,259.185669 
	C338.279175,259.163452 339.767548,259.163452 341.947571,259.163452 
	C341.947571,271.849487 341.947571,284.355865 341.947571,297.305634 
	C345.254486,297.305634 347.874908,297.303864 350.495331,297.306000 
	C357.265808,297.311493 357.265808,297.312164 356.351044,304.663879 
	C349.210999,304.663879 342.019135,304.663879 334.193634,304.663879 
	C334.193634,298.297241 334.193542,292.032867 334.193634,285.768524 
	C334.193726,278.457672 334.097290,271.144470 334.271637,263.837799 
	C334.308746,262.282410 335.331787,260.750580 336.345703,259.185669 
z"/>
<path fill="#F4F5F9" opacity="1.000000" stroke="none" 
	d="
M354.875854,240.747833 
	C354.866699,226.143997 354.866699,212.014267 354.866699,197.524872 
	C357.467377,197.524872 359.699921,197.524872 362.360596,197.524872 
	C362.360596,212.544205 362.360596,227.563171 362.360596,243.834595 
	C359.511322,242.838806 357.198151,242.030396 354.875854,240.747833 
z"/>
<path fill="#F4F6F9" opacity="1.000000" stroke="none" 
	d="
M287.201172,276.004395 
	C287.201172,270.364441 287.201172,265.223328 287.201172,259.456482 
	C289.731171,259.326843 291.958618,259.212738 294.662628,259.074188 
	C294.662628,274.371155 294.662628,289.386536 294.662628,304.711578 
	C292.496429,304.711578 290.247162,304.711578 287.201141,304.711578 
	C287.201141,295.334961 287.201141,285.919067 287.201172,276.004395 
z"/>
<path fill="#F8F9FB" opacity="1.000000" stroke="none" 
	d="
M322.936798,199.473816 
	C322.948608,214.064560 322.948608,228.193726 322.948608,242.664581 
	C320.345154,242.664581 318.097198,242.664581 315.442474,242.664581 
	C315.442474,227.907425 315.442474,213.013000 315.442474,196.721970 
	C318.050354,197.520187 320.487671,198.266220 322.936798,199.473816 
z"/>
<path fill="#FBFBFB" opacity="1.000000" stroke="none" 
	d="
M377.533752,431.250793 
	C377.201630,431.698303 377.006287,431.903656 376.612335,432.209259 
	C373.899323,432.917694 371.360687,433.502869 368.404114,434.109161 
	C361.119049,430.572876 359.613129,426.984985 362.155853,419.604004 
	C362.568542,419.099609 362.808075,418.895142 363.088043,418.401215 
	C366.173981,417.233093 369.156006,416.280029 372.514282,415.428467 
	C379.381256,419.130585 380.808258,422.346588 378.801514,429.406921 
	C378.377533,430.194733 378.036102,430.613190 377.533752,431.250793 
M373.463959,427.029938 
	C375.380951,419.436523 374.338318,418.247101 366.963196,419.374573 
	C366.963196,423.210815 366.963196,426.993164 366.963196,430.775513 
	C367.340820,430.782196 367.718414,430.788849 368.096039,430.795502 
	C368.583771,429.538055 369.071533,428.280579 369.749603,426.532440 
	C371.427490,428.290802 372.714630,429.639648 374.001770,430.988495 
	C374.274780,430.757294 374.547791,430.526123 374.820801,430.294922 
	C374.482788,429.415131 374.144775,428.535370 373.463959,427.029938 
z"/>
<path fill="#F8F9FC" opacity="1.000000" stroke="none" 
	d="
M256.077118,149.964554 
	C255.811462,151.242584 255.982910,153.146225 255.204376,153.690170 
	C251.866714,156.022110 248.249313,157.953674 243.985733,160.004135 
	C242.169006,159.003006 241.100433,158.028915 240.375107,156.984192 
	C241.479996,155.274841 242.241638,153.636108 243.001648,151.998688 
	C243.000000,152.000000 242.998352,152.001709 243.371552,152.000183 
	C248.911545,150.442322 251.132339,147.443466 250.206757,143.966507 
	C247.514664,144.970093 244.774811,145.991470 242.034973,147.012863 
	C244.164978,144.077026 246.295013,141.141190 248.992676,138.221832 
	C250.053345,137.863007 250.546356,137.487671 251.039368,137.112350 
	C251.417038,136.730255 251.794724,136.348160 252.721085,136.024231 
	C254.209534,135.793625 255.149292,135.504852 256.089050,135.216064 
	C258.796295,133.727646 261.503510,132.239197 264.592987,131.197662 
	C262.891876,133.880096 260.808502,136.115631 258.531158,138.559326 
	C261.428528,138.386642 264.284973,138.216400 267.141418,138.046143 
	C267.630768,142.705124 263.626709,146.957138 256.170685,149.025635 
	C255.146713,149.415771 254.777313,149.781525 254.407898,150.147278 
	C254.964310,150.086380 255.520721,150.025467 256.077118,149.964554 
M252.373199,142.211456 
	C252.736588,142.260330 253.099960,142.309204 253.463348,142.358078 
	C253.465729,142.098145 253.468109,141.838211 253.470490,141.578262 
	C253.106155,141.618500 252.741837,141.658737 252.373199,142.211456 
z"/>
<path fill="#EFF2F8" opacity="1.000000" stroke="none" 
	d="
M240.031860,157.054825 
	C241.100433,158.028915 242.169006,159.003006 243.625504,159.990967 
	C243.347443,164.477325 239.390182,163.012741 236.538803,163.654419 
	C236.174072,162.669052 236.066086,162.035431 235.958115,161.401810 
	C235.636703,162.223160 235.315292,163.044510 234.993896,163.865845 
	C232.240463,161.526047 232.240463,161.526047 235.541595,157.954590 
	C236.998093,157.697647 237.991623,157.347900 239.247040,157.008453 
	C239.683228,157.030762 239.857544,157.042786 240.031860,157.054825 
z"/>
<path fill="#E8ECF4" opacity="1.000000" stroke="none" 
	d="
M267.455200,138.013550 
	C264.284973,138.216400 261.428528,138.386642 258.531158,138.559326 
	C260.808502,136.115631 262.891876,133.880096 264.995605,131.263885 
	C265.596313,133.379990 271.748535,133.715546 267.455200,138.013550 
z"/>
<path fill="#E8ECF4" opacity="1.000000" stroke="none" 
	d="
M241.783676,147.021729 
	C244.774811,145.991470 247.514664,144.970093 250.206757,143.966507 
	C251.132339,147.443466 248.911545,150.442322 243.339813,151.657288 
	C242.259232,150.130127 241.583588,148.944351 240.907928,147.758560 
	C241.116074,147.515915 241.324234,147.273254 241.783676,147.021729 
M244.474518,149.589615 
	C244.474518,149.589615 244.400925,149.471405 244.474518,149.589615 
z"/>
<path fill="#F8F9FC" opacity="1.000000" stroke="none" 
	d="
M240.570084,147.863449 
	C241.583588,148.944351 242.259232,150.130127 242.966614,151.658813 
	C242.998352,152.001709 243.000000,152.000000 242.658051,152.047394 
	C241.205780,153.729248 240.095474,155.363708 238.985168,156.998169 
	C237.991623,157.347900 236.998093,157.697647 235.840897,157.764893 
	C237.195572,154.311050 238.713898,151.139694 240.570084,147.863449 
z"/>
<path fill="#E8ECF4" opacity="1.000000" stroke="none" 
	d="
M255.790100,135.097473 
	C255.149292,135.504852 254.209534,135.793625 252.989441,135.961945 
	C253.636459,135.553955 254.563797,135.266403 255.790100,135.097473 
z"/>
<path fill="#E7EBF4" opacity="1.000000" stroke="none" 
	d="
M235.254608,163.906403 
	C235.315292,163.044510 235.636703,162.223160 235.958115,161.401810 
	C236.066086,162.035431 236.174072,162.669052 236.157288,163.572556 
	C235.860107,163.877289 235.687698,163.912125 235.254608,163.906403 
z"/>
<path fill="#E8ECF4" opacity="1.000000" stroke="none" 
	d="
M250.761826,137.165894 
	C250.546356,137.487671 250.053345,137.863007 249.323227,138.133331 
	C249.552170,137.758698 250.018234,137.489075 250.761826,137.165894 
z"/>
<path fill="#EFF2F8" opacity="1.000000" stroke="none" 
	d="
M256.009369,149.730988 
	C255.520721,150.025467 254.964310,150.086380 254.407898,150.147278 
	C254.777313,149.781525 255.146713,149.415771 255.799530,149.041016 
	C256.082947,149.032013 255.941620,149.497421 256.009369,149.730988 
z"/>
<path fill="#F8F9FC" opacity="1.000000" stroke="none" 
	d="
M336.805573,344.460510 
	C336.980652,342.762604 337.088623,341.467957 337.314697,338.757141 
	C341.097015,341.738861 344.141449,344.138916 347.786316,347.012268 
	C344.116455,349.885925 341.074646,352.267731 338.032867,354.649536 
	C337.601410,354.358154 337.169922,354.066772 336.738464,353.775391 
	C336.738464,350.804871 336.738464,347.834320 336.805573,344.460510 
z"/>
<path fill="#F6F7FB" opacity="1.000000" stroke="none" 
	d="
M162.811127,354.106476 
	C160.192490,351.882599 157.573853,349.658722 154.533936,347.077057 
	C157.824585,344.124817 160.804916,341.450958 164.556915,338.084808 
	C164.666962,340.500061 164.730072,341.885254 164.540482,343.916412 
	C164.468903,346.024719 164.650024,347.487000 164.831146,348.949310 
	C164.813324,350.336182 164.795502,351.723083 164.404236,353.537476 
	C163.624222,354.012177 163.217682,354.059326 162.811127,354.106476 
z"/>
<path fill="#DCE2EF" opacity="1.000000" stroke="none" 
	d="
M290.868713,348.336212 
	C287.901520,348.597870 285.229187,348.904541 282.643158,348.561218 
	C281.450134,348.402802 280.425781,346.973816 279.324951,346.120941 
	C279.608398,345.651428 279.891876,345.181915 280.175323,344.712402 
	C283.118774,344.712402 286.062775,344.746704 289.005554,344.702148 
	C291.634674,344.662384 292.219849,345.851959 290.868713,348.336212 
z"/>
<path fill="#DCE2EF" opacity="1.000000" stroke="none" 
	d="
M210.591705,347.741272 
	C211.378510,346.498718 212.265656,344.977020 213.338348,344.832489 
	C216.074600,344.463837 218.893661,344.709717 221.645020,344.709717 
	C222.128616,349.104706 219.577103,349.829224 210.591705,347.741272 
z"/>
<path fill="#DEE3F0" opacity="1.000000" stroke="none" 
	d="
M297.322693,347.781281 
	C297.935669,346.512848 298.655487,344.941284 299.538513,344.843475 
	C302.481964,344.517548 305.483948,344.720093 308.450531,344.720093 
	C308.583221,349.129578 306.565948,349.699310 297.322693,347.781281 
z"/>
<path fill="#DEE3F0" opacity="1.000000" stroke="none" 
	d="
M196.435608,344.715454 
	C199.344559,344.715179 201.826492,344.715179 204.308441,344.715179 
	C204.638687,345.092499 204.968933,345.469818 205.299179,345.847168 
	C204.387070,346.784729 203.588837,348.338989 202.539398,348.532776 
	C200.288239,348.948456 197.891556,348.817810 195.587860,348.583099 
	C194.714691,348.494141 193.933441,347.502686 193.110291,346.922577 
	C194.076385,346.186951 195.042496,345.451355 196.435608,344.715454 
z"/>
<path fill="#DEE3F0" opacity="1.000000" stroke="none" 
	d="
M255.253799,344.752899 
	C256.071381,345.557739 256.474823,346.332886 256.878296,347.108002 
	C253.666321,347.623932 250.464920,348.344604 247.234924,348.511200 
	C246.431305,348.552673 245.535309,346.803314 244.681763,345.877106 
	C244.943924,345.492462 245.206085,345.107819 245.468246,344.723175 
	C248.592056,344.723175 251.715866,344.723175 255.253799,344.752899 
z"/>
<path fill="#DCE2EF" opacity="1.000000" stroke="none" 
	d="
M322.672363,344.708954 
	C324.226044,345.498779 325.352905,346.288025 326.479797,347.077271 
	C326.214691,347.609619 325.949615,348.141998 325.684509,348.674377 
	C322.742218,348.674377 319.784027,348.844452 316.867157,348.572205 
	C315.976746,348.489044 315.199799,347.189789 314.370911,346.447479 
	C315.178680,345.870178 315.931763,344.922119 316.805634,344.793243 
	C318.584442,344.531006 320.428406,344.710754 322.672363,344.708954 
z"/>
<path fill="#DCE2EF" opacity="1.000000" stroke="none" 
	d="
M179.323975,344.708954 
	C181.734833,344.713745 183.734406,344.570984 185.689636,344.802490 
	C186.390991,344.885529 186.985489,345.871155 187.628738,346.444855 
	C186.966125,347.184601 186.351334,348.503326 185.632523,348.562683 
	C182.691757,348.805573 179.719238,348.664062 176.612946,348.664062 
	C175.457397,346.035217 175.589371,344.462067 179.323975,344.708954 
z"/>
<path fill="#DCE2EF" opacity="1.000000" stroke="none" 
	d="
M227.962219,347.027618 
	C229.539871,344.719879 238.286118,343.667999 239.190247,345.422424 
	C239.556229,346.132538 238.588486,348.450500 238.299072,348.437592 
	C234.852676,348.283691 231.419708,347.827972 227.962219,347.027618 
z"/>
<path fill="#DCE2EF" opacity="1.000000" stroke="none" 
	d="
M262.625427,345.483887 
	C266.420532,344.953308 270.017639,344.763092 275.214050,344.488312 
	C273.689636,346.586884 272.522949,348.614075 272.252625,348.500854 
	C269.080048,347.172180 264.156616,352.029205 262.625427,345.483887 
z"/>
<path fill="#D2D9EA" opacity="1.000000" stroke="none" 
	d="
M165.224792,348.865173 
	C164.650024,347.487000 164.468903,346.024719 164.516052,344.320740 
	C166.313385,344.325439 167.882462,344.571777 169.480728,344.822693 
	C170.395966,348.587006 170.395966,348.587006 165.224792,348.865173 
z"/>
<path fill="#D2D9EA" opacity="1.000000" stroke="none" 
	d="
M162.963043,354.402222 
	C163.217682,354.059326 163.624222,354.012177 164.336868,353.947815 
	C164.133621,354.186371 163.624283,354.442169 162.963043,354.402222 
z"/>
<path fill="#17347D" opacity="1.000000" stroke="none" 
	d="
M293.943573,210.095291 
	C294.009155,208.164124 294.074707,206.712570 294.138275,205.305420 
	C301.537811,204.536301 301.752625,204.671204 301.841919,209.937225 
	C302.018524,220.355698 302.018524,220.355698 293.943573,219.813171 
	C293.943573,216.768890 293.943573,213.671906 293.943573,210.095291 
z"/>
<path fill="#17347D" opacity="1.000000" stroke="none" 
	d="
M120.803970,220.072510 
	C118.447258,220.174957 116.742043,220.313461 116.893745,217.426102 
	C117.101212,213.477493 116.945572,209.509811 116.945572,205.046661 
	C119.910675,205.617264 123.613869,202.700943 124.748497,207.626068 
	C126.254303,214.162323 124.698578,219.122131 120.803970,220.072510 
z"/>
<path fill="#1F3B81" opacity="1.000000" stroke="none" 
	d="
M150.192261,218.241760 
	C150.662354,215.586273 151.051926,213.353088 151.441498,211.119888 
	C151.882736,211.027847 152.323975,210.935822 152.765213,210.843781 
	C153.767151,216.068863 154.769089,221.293961 155.836182,226.858826 
	C153.494919,226.858826 151.429764,226.858826 148.847961,226.858826 
	C149.281845,224.045410 149.696777,221.354721 150.192261,218.241760 
z"/>
<path fill="#1F3B81" opacity="1.000000" stroke="none" 
	d="
M313.213989,277.400330 
	C313.609924,275.541992 313.926239,274.083435 314.242584,272.624878 
	C314.536926,272.563660 314.831238,272.502411 315.125580,272.441193 
	C316.169495,277.735870 317.213379,283.030548 318.343689,288.763611 
	C315.819092,288.763611 313.626617,288.763611 311.269806,288.763611 
	C311.912598,284.984070 312.523468,281.392090 313.213989,277.400330 
z"/>
<path fill="#A9A9A9" opacity="1.000000" stroke="none" 
	d="
M373.635376,427.342773 
	C374.144775,428.535370 374.482788,429.415131 374.820801,430.294922 
	C374.547791,430.526123 374.274780,430.757294 374.001770,430.988495 
	C372.714630,429.639648 371.427490,428.290802 369.749603,426.532440 
	C369.071533,428.280579 368.583771,429.538055 368.096039,430.795502 
	C367.718414,430.788849 367.340820,430.782196 366.963196,430.775513 
	C366.963196,426.993164 366.963196,423.210815 366.963196,419.374573 
	C374.338318,418.247101 375.380951,419.436523 373.635376,427.342773 
z"/>
<path fill="#E7EBF4" opacity="1.000000" stroke="none" 
	d="
M239.247040,157.008453 
	C240.095474,155.363708 241.205780,153.729248 242.659698,152.046082 
	C242.241638,153.636108 241.479996,155.274841 240.375107,156.984192 
	C239.857544,157.042786 239.683228,157.030762 239.247040,157.008453 
z"/>
<path fill="#E8ECF4" opacity="1.000000" stroke="none" 
	d="
M252.375351,141.955215 
	C252.741837,141.658737 253.106155,141.618500 253.470490,141.578278 
	C253.468109,141.838211 253.465729,142.098145 253.463348,142.358078 
	C253.099960,142.309204 252.736588,142.260330 252.375351,141.955215 
z"/>
<path fill="#F8F9FC" opacity="1.000000" stroke="none" 
	d="
M244.437714,149.530518 
	C244.400925,149.471405 244.474518,149.589615 244.437714,149.530518 
z"/>
</svg>